<svg width="1800" height="450" viewBox="0 0 1800 450" fill="none" xmlns="http://www.w3.org/2000/svg">
<g clip-path="url(#clip0_1_353)">
<rect x="150.5" y="300.5" width="149" height="149" fill="#151515" stroke="#24FF00"/>
<path d="M277.224 437.719V436.125L284.255 425H285.411V427.469H284.63L279.317 435.875V436H288.786V437.719H277.224ZM284.755 441V437.234V436.492V425H286.599V441H284.755Z" fill="#24FF00"/>
<rect x="150.5" y="150.5" width="149" height="149" fill="#910F17" stroke="#24FF00"/>
<path d="M282.964 233.219C282.047 233.219 281.222 233.036 280.487 232.672C279.753 232.307 279.164 231.807 278.722 231.172C278.279 230.536 278.037 229.812 277.995 229H279.87C279.943 229.724 280.271 230.323 280.854 230.797C281.443 231.266 282.146 231.5 282.964 231.5C283.62 231.5 284.203 231.346 284.714 231.039C285.229 230.732 285.633 230.31 285.925 229.773C286.222 229.232 286.37 228.62 286.37 227.937C286.37 227.24 286.216 226.617 285.909 226.07C285.607 225.518 285.19 225.083 284.659 224.766C284.128 224.448 283.521 224.286 282.839 224.281C282.349 224.276 281.847 224.352 281.331 224.508C280.815 224.659 280.391 224.854 280.058 225.094L278.245 224.875L279.214 217H287.526V218.719H280.839L280.276 223.437H280.37C280.698 223.177 281.11 222.961 281.604 222.789C282.099 222.617 282.615 222.531 283.151 222.531C284.131 222.531 285.003 222.766 285.769 223.234C286.539 223.698 287.144 224.333 287.581 225.141C288.024 225.948 288.245 226.87 288.245 227.906C288.245 228.927 288.016 229.839 287.558 230.641C287.104 231.437 286.479 232.068 285.683 232.531C284.886 232.99 283.979 233.219 282.964 233.219Z" fill="#24FF00"/>
<rect x="150.5" y="0.5" width="149" height="149" fill="#151515" stroke="#24FF00"/>
<path d="M283.104 25.2187C282.448 25.2083 281.792 25.0833 281.136 24.8437C280.479 24.6042 279.881 24.2005 279.339 23.6328C278.797 23.0599 278.362 22.2865 278.034 21.3125C277.706 20.3333 277.542 19.1042 277.542 17.625C277.542 16.2083 277.675 14.9531 277.94 13.8594C278.206 12.7604 278.591 11.8359 279.097 11.0859C279.602 10.3307 280.211 9.75781 280.925 9.36719C281.644 8.97656 282.453 8.78125 283.354 8.78125C284.25 8.78125 285.047 8.96094 285.745 9.32031C286.448 9.67448 287.021 10.1693 287.464 10.8047C287.907 11.4401 288.193 12.1719 288.323 13H286.417C286.24 12.2812 285.896 11.6849 285.386 11.2109C284.875 10.737 284.198 10.5 283.354 10.5C282.115 10.5 281.138 11.0391 280.425 12.1172C279.716 13.1953 279.36 14.7083 279.354 16.6562H279.479C279.771 16.2135 280.118 15.8359 280.519 15.5234C280.925 15.2057 281.373 14.9609 281.862 14.7891C282.352 14.6172 282.87 14.5312 283.417 14.5312C284.334 14.5312 285.172 14.7604 285.933 15.2187C286.693 15.6719 287.302 16.2995 287.761 17.1016C288.219 17.8984 288.448 18.8125 288.448 19.8438C288.448 20.8333 288.227 21.7396 287.784 22.5625C287.341 23.3802 286.719 24.0312 285.917 24.5156C285.12 24.9948 284.183 25.2292 283.104 25.2187ZM283.104 23.5C283.761 23.5 284.349 23.3359 284.87 23.0078C285.396 22.6797 285.81 22.2396 286.112 21.6875C286.42 21.1354 286.573 20.5208 286.573 19.8438C286.573 19.1823 286.425 18.5807 286.128 18.0391C285.836 17.4922 285.433 17.0573 284.917 16.7344C284.407 16.4115 283.823 16.25 283.167 16.25C282.672 16.25 282.211 16.349 281.784 16.5469C281.357 16.7396 280.982 17.0052 280.659 17.3437C280.341 17.6823 280.091 18.0703 279.909 18.5078C279.727 18.9401 279.636 19.3958 279.636 19.875C279.636 20.5104 279.784 21.1042 280.081 21.6562C280.383 22.2083 280.795 22.6536 281.315 22.9922C281.841 23.3307 282.438 23.5 283.104 23.5Z" fill="#24FF00"/>
<rect x="0.5" y="0.5" width="149" height="149" fill="#910F17" stroke="#24FF00"/>
<path d="M17.0586 25.2187C16.0273 25.2187 15.1081 25.0417 14.3008 24.6875C13.4987 24.3333 12.8607 23.8411 12.3867 23.2109C11.918 22.5755 11.6628 21.8385 11.6211 21H13.5898C13.6315 21.5156 13.8086 21.9609 14.1211 22.3359C14.4336 22.7057 14.8424 22.9922 15.3477 23.1953C15.8529 23.3984 16.4128 23.5 17.0273 23.5C17.7148 23.5 18.3242 23.3802 18.8555 23.1406C19.3867 22.901 19.8034 22.5677 20.1055 22.1406C20.4076 21.7135 20.5586 21.2188 20.5586 20.6562C20.5586 20.0677 20.4128 19.5495 20.1211 19.1016C19.8294 18.6484 19.4023 18.2943 18.8398 18.0391C18.2773 17.7839 17.5898 17.6562 16.7773 17.6562H15.4961V15.9375H16.7773C17.4128 15.9375 17.9701 15.8229 18.4492 15.5937C18.9336 15.3646 19.3112 15.0417 19.582 14.625C19.8581 14.2083 19.9961 13.7187 19.9961 13.1562C19.9961 12.6146 19.8763 12.1432 19.6367 11.7422C19.3971 11.3411 19.0586 11.0286 18.6211 10.8047C18.1888 10.5807 17.6784 10.4687 17.0898 10.4687C16.5378 10.4687 16.0169 10.5703 15.5273 10.7734C15.043 10.9714 14.6471 11.2604 14.3398 11.6406C14.0326 12.0156 13.8659 12.4688 13.8398 13H11.9648C11.9961 12.1615 12.2487 11.4271 12.7227 10.7969C13.1966 10.1615 13.8164 9.66667 14.582 9.3125C15.3529 8.95833 16.1992 8.78125 17.1211 8.78125C18.1107 8.78125 18.9596 8.98177 19.668 9.38281C20.3763 9.77865 20.9206 10.3021 21.3008 10.9531C21.681 11.6042 21.8711 12.3073 21.8711 13.0625C21.8711 13.9635 21.6341 14.7318 21.1602 15.3672C20.6914 16.0026 20.0534 16.4427 19.2461 16.6875V16.8125C20.2565 16.9792 21.0456 17.4089 21.6133 18.1016C22.181 18.7891 22.4648 19.6406 22.4648 20.6562C22.4648 21.526 22.2279 22.3073 21.7539 23C21.2852 23.6875 20.6445 24.2292 19.832 24.625C19.0195 25.0208 18.0951 25.2187 17.0586 25.2187Z" fill="#24FF00"/>
<rect x="0.5" y="150.5" width="149" height="149" fill="#151515" stroke="#24FF00"/>
<path d="M11.9961 233V231.594L17.2773 225.812C17.8971 225.135 18.4076 224.547 18.8086 224.047C19.2096 223.542 19.5065 223.068 19.6992 222.625C19.8971 222.177 19.9961 221.708 19.9961 221.219C19.9961 220.656 19.8607 220.169 19.5898 219.758C19.3242 219.346 18.9596 219.029 18.4961 218.805C18.0326 218.581 17.5117 218.469 16.9336 218.469C16.319 218.469 15.7826 218.596 15.3242 218.852C14.8711 219.102 14.5195 219.453 14.2695 219.906C14.0247 220.359 13.9023 220.891 13.9023 221.5H12.0586C12.0586 220.562 12.2747 219.74 12.707 219.031C13.1393 218.323 13.7279 217.771 14.4727 217.375C15.2227 216.979 16.0638 216.781 16.9961 216.781C17.9336 216.781 18.7643 216.979 19.4883 217.375C20.2122 217.771 20.7799 218.305 21.1914 218.977C21.6029 219.648 21.8086 220.396 21.8086 221.219C21.8086 221.807 21.7018 222.383 21.4883 222.945C21.2799 223.503 20.9154 224.125 20.3945 224.812C19.8789 225.495 19.1628 226.328 18.2461 227.312L14.6523 231.156V231.281H22.0898V233H11.9961Z" fill="#24FF00"/>
<rect x="0.5" y="300.5" width="149" height="149" fill="#910F17" stroke="#24FF00"/>
<path d="M19.168 425V441H17.2305V427.031H17.1367L13.2305 429.625V427.656L17.2305 425H19.168Z" fill="#24FF00"/>
<rect x="450.5" y="300.5" width="149" height="149" fill="#151515" stroke="#24FF00"/>
<path d="M578.293 425V441H576.355V427.031H576.262L572.355 429.625V427.656L576.355 425H578.293ZM588.113 441.219C586.936 441.219 585.934 440.898 585.105 440.258C584.277 439.612 583.645 438.677 583.207 437.453C582.77 436.224 582.551 434.74 582.551 433C582.551 431.271 582.77 429.794 583.207 428.57C583.65 427.341 584.285 426.404 585.113 425.758C585.947 425.107 586.947 424.781 588.113 424.781C589.28 424.781 590.277 425.107 591.105 425.758C591.939 426.404 592.574 427.341 593.012 428.57C593.454 429.794 593.676 431.271 593.676 433C593.676 434.74 593.457 436.224 593.02 437.453C592.582 438.677 591.949 439.612 591.121 440.258C590.293 440.898 589.29 441.219 588.113 441.219ZM588.113 439.5C589.28 439.5 590.186 438.937 590.832 437.812C591.478 436.687 591.801 435.083 591.801 433C591.801 431.615 591.652 430.435 591.355 429.461C591.064 428.487 590.642 427.745 590.09 427.234C589.543 426.724 588.884 426.469 588.113 426.469C586.957 426.469 586.053 427.039 585.402 428.18C584.751 429.315 584.426 430.922 584.426 433C584.426 434.385 584.572 435.562 584.863 436.531C585.155 437.5 585.574 438.237 586.121 438.742C586.673 439.247 587.337 439.5 588.113 439.5Z" fill="#24FF00"/>
<rect x="450.5" y="150.5" width="149" height="149" fill="#151515" stroke="#24FF00"/>
<path d="M580.055 217V233H578.117V219.031H578.023L574.117 221.625V219.656L578.117 217H580.055ZM590.281 217V233H588.344V219.031H588.25L584.344 221.625V219.656L588.344 217H590.281Z" fill="#24FF00"/>
<rect x="450.5" y="0.5" width="149" height="149" fill="#910F17" stroke="#24FF00"/>
<path d="M578.508 9V25H576.57V11.0312H576.477L572.57 13.625V11.6562L576.57 9H578.508ZM583.109 25V23.5938L588.391 17.8125C589.01 17.1354 589.521 16.5469 589.922 16.0469C590.323 15.5417 590.62 15.0677 590.813 14.625C591.01 14.1771 591.109 13.7083 591.109 13.2187C591.109 12.6563 590.974 12.1693 590.703 11.7578C590.438 11.3464 590.073 11.0286 589.609 10.8047C589.146 10.5807 588.625 10.4687 588.047 10.4687C587.432 10.4687 586.896 10.5964 586.438 10.8516C585.984 11.1016 585.633 11.4531 585.383 11.9062C585.138 12.3594 585.016 12.8906 585.016 13.5H583.172C583.172 12.5625 583.388 11.7396 583.82 11.0312C584.253 10.3229 584.841 9.77083 585.586 9.375C586.336 8.97917 587.177 8.78125 588.109 8.78125C589.047 8.78125 589.878 8.97917 590.602 9.375C591.326 9.77083 591.893 10.3047 592.305 10.9766C592.716 11.6484 592.922 12.3958 592.922 13.2187C592.922 13.8073 592.815 14.3828 592.602 14.9453C592.393 15.5026 592.029 16.125 591.508 16.8125C590.992 17.4948 590.276 18.3281 589.359 19.3125L585.766 23.1562V23.2812H593.203V25H583.109Z" fill="#24FF00"/>
<rect x="300.5" y="0.5" width="149" height="149" fill="#910F17" stroke="#24FF00"/>
<path d="M316.886 8.78125C317.542 8.78646 318.198 8.91146 318.854 9.15625C319.511 9.40104 320.11 9.80729 320.651 10.375C321.193 10.9375 321.628 11.7057 321.956 12.6797C322.284 13.6536 322.448 14.875 322.448 16.3438C322.448 17.7656 322.313 19.0286 322.042 20.1328C321.776 21.2318 321.391 22.1589 320.886 22.9141C320.386 23.6693 319.776 24.2422 319.058 24.6328C318.344 25.0234 317.537 25.2187 316.636 25.2187C315.74 25.2187 314.94 25.0417 314.237 24.6875C313.539 24.3281 312.966 23.8307 312.519 23.1953C312.076 22.5547 311.792 21.8125 311.667 20.9687H313.573C313.745 21.7031 314.086 22.3099 314.597 22.7891C315.112 23.263 315.792 23.5 316.636 23.5C317.87 23.5 318.844 22.9609 319.558 21.8828C320.276 20.8047 320.636 19.2812 320.636 17.3125H320.511C320.219 17.75 319.873 18.1276 319.472 18.4453C319.071 18.763 318.625 19.0078 318.136 19.1797C317.646 19.3516 317.125 19.4375 316.573 19.4375C315.657 19.4375 314.815 19.2109 314.05 18.7578C313.289 18.2995 312.68 17.6719 312.222 16.875C311.769 16.0729 311.542 15.1562 311.542 14.125C311.542 13.1458 311.761 12.25 312.198 11.4375C312.641 10.6198 313.261 9.96875 314.058 9.48437C314.86 9 315.802 8.76562 316.886 8.78125ZM316.886 10.5C316.229 10.5 315.638 10.6641 315.112 10.9922C314.591 11.3151 314.177 11.7526 313.87 12.3047C313.568 12.8516 313.417 13.4583 313.417 14.125C313.417 14.7917 313.563 15.3984 313.854 15.9453C314.151 16.487 314.555 16.9193 315.065 17.2422C315.581 17.5599 316.167 17.7188 316.823 17.7188C317.318 17.7188 317.779 17.6224 318.206 17.4297C318.633 17.2318 319.006 16.9635 319.323 16.625C319.646 16.2812 319.899 15.8932 320.081 15.4609C320.263 15.0234 320.354 14.5677 320.354 14.0937C320.354 13.4687 320.203 12.8828 319.901 12.3359C319.604 11.7891 319.193 11.3464 318.667 11.0078C318.146 10.6693 317.552 10.5 316.886 10.5Z" fill="#24FF00"/>
<rect x="300.5" y="150.5" width="149" height="149" fill="#151515" stroke="#24FF00"/>
<path d="M317.003 233.219C315.93 233.219 314.982 233.029 314.159 232.648C313.341 232.263 312.703 231.734 312.245 231.062C311.787 230.385 311.56 229.615 311.565 228.75C311.56 228.073 311.693 227.448 311.964 226.875C312.235 226.297 312.604 225.815 313.073 225.43C313.547 225.039 314.076 224.792 314.659 224.688V224.594C313.894 224.396 313.284 223.966 312.831 223.305C312.378 222.638 312.154 221.88 312.159 221.031C312.154 220.219 312.36 219.492 312.776 218.852C313.193 218.211 313.766 217.706 314.495 217.336C315.229 216.966 316.065 216.781 317.003 216.781C317.93 216.781 318.758 216.966 319.487 217.336C320.216 217.706 320.789 218.211 321.206 218.852C321.628 219.492 321.841 220.219 321.847 221.031C321.841 221.88 321.61 222.638 321.151 223.305C320.698 223.966 320.097 224.396 319.347 224.594V224.688C319.925 224.792 320.446 225.039 320.909 225.43C321.373 225.815 321.743 226.297 322.019 226.875C322.295 227.448 322.435 228.073 322.44 228.75C322.435 229.615 322.201 230.385 321.737 231.062C321.279 231.734 320.641 232.263 319.823 232.648C319.011 233.029 318.071 233.219 317.003 233.219ZM317.003 231.5C317.727 231.5 318.352 231.383 318.878 231.148C319.404 230.914 319.81 230.583 320.097 230.156C320.383 229.729 320.529 229.229 320.534 228.656C320.529 228.052 320.373 227.518 320.065 227.055C319.758 226.591 319.339 226.227 318.808 225.961C318.282 225.695 317.68 225.562 317.003 225.562C316.321 225.562 315.711 225.695 315.175 225.961C314.644 226.227 314.224 226.591 313.917 227.055C313.615 227.518 313.466 228.052 313.472 228.656C313.466 229.229 313.604 229.729 313.886 230.156C314.172 230.583 314.581 230.914 315.112 231.148C315.644 231.383 316.274 231.5 317.003 231.5ZM317.003 223.906C317.576 223.906 318.084 223.792 318.526 223.562C318.974 223.333 319.326 223.013 319.581 222.602C319.836 222.19 319.966 221.708 319.972 221.156C319.966 220.615 319.839 220.143 319.589 219.742C319.339 219.336 318.993 219.023 318.55 218.805C318.107 218.581 317.591 218.469 317.003 218.469C316.404 218.469 315.881 218.581 315.433 218.805C314.985 219.023 314.638 219.336 314.394 219.742C314.149 220.143 314.029 220.615 314.034 221.156C314.029 221.708 314.151 222.19 314.401 222.602C314.657 223.013 315.008 223.333 315.456 223.562C315.904 223.792 316.42 223.906 317.003 223.906Z" fill="#24FF00"/>
<rect x="300.5" y="300.5" width="149" height="149" fill="#910F17" stroke="#24FF00"/>
<path d="M312.872 441L320.028 426.844V426.719H311.778V425H322.028V426.812L314.903 441H312.872Z" fill="#24FF00"/>
<rect x="750.5" y="300.5" width="149" height="149" fill="#910F17" stroke="#24FF00"/>
<path d="M878.304 425V441H876.366V427.031H876.272L872.366 429.625V427.656L876.366 425H878.304ZM888.218 441.219C887.562 441.208 886.905 441.083 886.249 440.844C885.593 440.604 884.994 440.201 884.452 439.633C883.91 439.06 883.476 438.286 883.147 437.312C882.819 436.333 882.655 435.104 882.655 433.625C882.655 432.208 882.788 430.953 883.054 429.859C883.319 428.76 883.705 427.836 884.21 427.086C884.715 426.331 885.325 425.758 886.038 425.367C886.757 424.977 887.567 424.781 888.468 424.781C889.364 424.781 890.16 424.961 890.858 425.32C891.562 425.674 892.134 426.169 892.577 426.805C893.02 427.44 893.306 428.172 893.437 429H891.53C891.353 428.281 891.009 427.685 890.499 427.211C889.989 426.737 889.312 426.5 888.468 426.5C887.228 426.5 886.252 427.039 885.538 428.117C884.83 429.195 884.473 430.708 884.468 432.656H884.593C884.884 432.214 885.231 431.836 885.632 431.523C886.038 431.206 886.486 430.961 886.976 430.789C887.465 430.617 887.983 430.531 888.53 430.531C889.447 430.531 890.285 430.76 891.046 431.219C891.806 431.672 892.416 432.299 892.874 433.102C893.332 433.898 893.562 434.812 893.562 435.844C893.562 436.833 893.34 437.74 892.897 438.562C892.455 439.38 891.832 440.031 891.03 440.516C890.233 440.995 889.296 441.229 888.218 441.219ZM888.218 439.5C888.874 439.5 889.463 439.336 889.983 439.008C890.509 438.68 890.924 438.24 891.226 437.687C891.533 437.135 891.687 436.521 891.687 435.844C891.687 435.182 891.538 434.581 891.241 434.039C890.95 433.492 890.546 433.057 890.03 432.734C889.52 432.411 888.937 432.25 888.28 432.25C887.785 432.25 887.325 432.349 886.897 432.547C886.47 432.74 886.095 433.005 885.772 433.344C885.455 433.682 885.205 434.07 885.022 434.508C884.84 434.94 884.749 435.396 884.749 435.875C884.749 436.51 884.897 437.104 885.194 437.656C885.496 438.208 885.908 438.654 886.429 438.992C886.955 439.331 887.551 439.5 888.218 439.5Z" fill="#24FF00"/>
<rect x="750.5" y="150.5" width="149" height="149" fill="#151515" stroke="#24FF00"/>
<path d="M878.884 217V233H876.946V219.031H876.853L872.946 221.625V219.656L876.946 217H878.884ZM883.985 233L891.142 218.844V218.719H882.892V217H893.142V218.812L886.017 233H883.985Z" fill="#24FF00"/>
<rect x="750.5" y="0.5" width="149" height="149" fill="#910F17" stroke="#24FF00"/>
<path d="M878.39 9V25H876.452V11.0312H876.358L872.452 13.625V11.6562L876.452 9H878.39ZM888.116 25.2187C887.043 25.2187 886.095 25.0286 885.272 24.6484C884.455 24.263 883.817 23.7344 883.358 23.0625C882.9 22.3854 882.674 21.6146 882.679 20.75C882.674 20.0729 882.806 19.4479 883.077 18.875C883.348 18.2969 883.718 17.8151 884.187 17.4297C884.66 17.0391 885.189 16.7917 885.772 16.6875V16.5937C885.007 16.3958 884.397 15.9661 883.944 15.3047C883.491 14.638 883.267 13.8802 883.272 13.0312C883.267 12.2187 883.473 11.4922 883.89 10.8516C884.306 10.2109 884.879 9.70573 885.608 9.33594C886.343 8.96615 887.179 8.78125 888.116 8.78125C889.043 8.78125 889.871 8.96615 890.601 9.33594C891.33 9.70573 891.903 10.2109 892.319 10.8516C892.741 11.4922 892.955 12.2187 892.96 13.0312C892.955 13.8802 892.723 14.638 892.265 15.3047C891.812 15.9661 891.21 16.3958 890.46 16.5937V16.6875C891.038 16.7917 891.559 17.0391 892.022 17.4297C892.486 17.8151 892.856 18.2969 893.132 18.875C893.408 19.4479 893.549 20.0729 893.554 20.75C893.549 21.6146 893.314 22.3854 892.851 23.0625C892.392 23.7344 891.754 24.263 890.937 24.6484C890.124 25.0286 889.184 25.2187 888.116 25.2187ZM888.116 23.5C888.84 23.5 889.465 23.3828 889.991 23.1484C890.517 22.9141 890.924 22.5833 891.21 22.1562C891.496 21.7292 891.642 21.2292 891.647 20.6562C891.642 20.0521 891.486 19.5182 891.179 19.0547C890.871 18.5911 890.452 18.2266 889.921 17.9609C889.395 17.6953 888.793 17.5625 888.116 17.5625C887.434 17.5625 886.825 17.6953 886.288 17.9609C885.757 18.2266 885.338 18.5911 885.03 19.0547C884.728 19.5182 884.58 20.0521 884.585 20.6562C884.58 21.2292 884.718 21.7292 884.999 22.1562C885.285 22.5833 885.694 22.9141 886.226 23.1484C886.757 23.3828 887.387 23.5 888.116 23.5ZM888.116 15.9062C888.689 15.9062 889.197 15.7917 889.64 15.5625C890.088 15.3333 890.439 15.013 890.694 14.6016C890.95 14.1901 891.08 13.7083 891.085 13.1562C891.08 12.6146 890.952 12.1432 890.702 11.7422C890.452 11.3359 890.106 11.0234 889.663 10.8047C889.22 10.5807 888.705 10.4687 888.116 10.4687C887.517 10.4687 886.994 10.5807 886.546 10.8047C886.098 11.0234 885.752 11.3359 885.507 11.7422C885.262 12.1432 885.142 12.6146 885.147 13.1562C885.142 13.7083 885.265 14.1901 885.515 14.6016C885.77 15.013 886.121 15.3333 886.569 15.5625C887.017 15.7917 887.533 15.9062 888.116 15.9062Z" fill="#24FF00"/>
<rect x="600.5" y="0.5" width="149" height="149" fill="#151515" stroke="#24FF00"/>
<path d="M612.476 9V25H610.538V11.0312H610.444L606.538 13.625V11.6562L610.538 9H612.476ZM622.077 25.2187C621.16 25.2187 620.335 25.0365 619.601 24.6719C618.866 24.3073 618.278 23.8073 617.835 23.1719C617.392 22.5365 617.15 21.8125 617.108 21H618.983C619.056 21.724 619.384 22.3229 619.968 22.7969C620.556 23.2656 621.259 23.5 622.077 23.5C622.733 23.5 623.317 23.3464 623.827 23.0391C624.343 22.7318 624.746 22.3099 625.038 21.7734C625.335 21.2318 625.483 20.6198 625.483 19.9375C625.483 19.2396 625.33 18.6172 625.022 18.0703C624.72 17.5182 624.304 17.0833 623.772 16.7656C623.241 16.4479 622.634 16.2865 621.952 16.2812C621.463 16.276 620.96 16.3516 620.444 16.5078C619.929 16.6589 619.504 16.8542 619.171 17.0938L617.358 16.875L618.327 9H626.64V10.7187H619.952L619.39 15.4375H619.483C619.812 15.1771 620.223 14.9609 620.718 14.7891C621.213 14.6172 621.728 14.5312 622.265 14.5312C623.244 14.5312 624.116 14.7656 624.882 15.2344C625.653 15.6979 626.257 16.3333 626.694 17.1406C627.137 17.9479 627.358 18.8698 627.358 19.9062C627.358 20.9271 627.129 21.8385 626.671 22.6406C626.218 23.4375 625.593 24.0677 624.796 24.5312C623.999 24.9896 623.093 25.2187 622.077 25.2187Z" fill="#24FF00"/>
<rect x="600.5" y="150.5" width="149" height="149" fill="#910F17" stroke="#24FF00"/>
<path d="M612.11 217V233H610.173V219.031H610.079L606.173 221.625V219.656L610.173 217H612.11ZM616.337 229.719V228.125L623.368 217H624.524V219.469H623.743L618.431 227.875V228H627.899V229.719H616.337ZM623.868 233V229.234V228.492V217H625.712V233H623.868Z" fill="#24FF00"/>
<rect x="600.5" y="300.5" width="149" height="149" fill="#151515" stroke="#24FF00"/>
<path d="M612.164 425V441H610.227V427.031H610.133L606.227 429.625V427.656L610.227 425H612.164ZM622.172 441.219C621.141 441.219 620.221 441.042 619.414 440.687C618.612 440.333 617.974 439.841 617.5 439.211C617.031 438.576 616.776 437.839 616.734 437H618.703C618.745 437.516 618.922 437.961 619.234 438.336C619.547 438.706 619.956 438.992 620.461 439.195C620.966 439.398 621.526 439.5 622.141 439.5C622.828 439.5 623.438 439.38 623.969 439.141C624.5 438.901 624.917 438.568 625.219 438.141C625.521 437.714 625.672 437.219 625.672 436.656C625.672 436.068 625.526 435.549 625.234 435.102C624.943 434.648 624.516 434.294 623.953 434.039C623.391 433.784 622.703 433.656 621.891 433.656H620.609V431.937H621.891C622.526 431.937 623.083 431.823 623.563 431.594C624.047 431.365 624.424 431.042 624.695 430.625C624.971 430.208 625.109 429.719 625.109 429.156C625.109 428.615 624.99 428.143 624.75 427.742C624.51 427.341 624.172 427.029 623.734 426.805C623.302 426.581 622.792 426.469 622.203 426.469C621.651 426.469 621.13 426.57 620.641 426.773C620.156 426.971 619.76 427.26 619.453 427.641C619.146 428.016 618.979 428.469 618.953 429H617.078C617.109 428.161 617.362 427.427 617.836 426.797C618.31 426.161 618.93 425.667 619.695 425.312C620.466 424.958 621.313 424.781 622.234 424.781C623.224 424.781 624.073 424.982 624.781 425.383C625.49 425.779 626.034 426.302 626.414 426.953C626.794 427.604 626.984 428.307 626.984 429.063C626.984 429.964 626.747 430.732 626.273 431.367C625.805 432.003 625.167 432.443 624.359 432.688V432.812C625.37 432.979 626.159 433.409 626.727 434.102C627.294 434.789 627.578 435.641 627.578 436.656C627.578 437.526 627.341 438.307 626.867 439C626.398 439.687 625.758 440.229 624.945 440.625C624.133 441.021 623.208 441.219 622.172 441.219Z" fill="#24FF00"/>
<rect x="1050.5" y="300.5" width="149" height="149" fill="#151515" stroke="#24FF00"/>
<path d="M1171.34 441V439.594L1176.62 433.812C1177.24 433.135 1177.75 432.547 1178.15 432.047C1178.55 431.542 1178.85 431.068 1179.04 430.625C1179.24 430.177 1179.34 429.708 1179.34 429.219C1179.34 428.656 1179.2 428.169 1178.93 427.758C1178.66 427.346 1178.3 427.029 1177.84 426.805C1177.37 426.581 1176.85 426.469 1176.27 426.469C1175.66 426.469 1175.12 426.596 1174.66 426.852C1174.21 427.102 1173.86 427.453 1173.61 427.906C1173.36 428.359 1173.24 428.891 1173.24 429.5H1171.4C1171.4 428.562 1171.61 427.74 1172.05 427.031C1172.48 426.323 1173.07 425.771 1173.81 425.375C1174.56 424.979 1175.4 424.781 1176.34 424.781C1177.27 424.781 1178.1 424.979 1178.83 425.375C1179.55 425.771 1180.12 426.305 1180.53 426.977C1180.94 427.648 1181.15 428.396 1181.15 429.219C1181.15 429.807 1181.04 430.383 1180.83 430.945C1180.62 431.503 1180.26 432.125 1179.73 432.812C1179.22 433.495 1178.5 434.328 1177.59 435.312L1173.99 439.156V439.281H1181.43V441H1171.34ZM1184.66 441V439.594L1189.94 433.812C1190.56 433.135 1191.07 432.547 1191.47 432.047C1191.87 431.542 1192.17 431.068 1192.36 430.625C1192.56 430.177 1192.66 429.708 1192.66 429.219C1192.66 428.656 1192.52 428.169 1192.25 427.758C1191.98 427.346 1191.62 427.029 1191.16 426.805C1190.69 426.581 1190.17 426.469 1189.59 426.469C1188.98 426.469 1188.44 426.596 1187.98 426.852C1187.53 427.102 1187.18 427.453 1186.93 427.906C1186.68 428.359 1186.56 428.891 1186.56 429.5H1184.72C1184.72 428.562 1184.93 427.74 1185.37 427.031C1185.8 426.323 1186.39 425.771 1187.13 425.375C1187.88 424.979 1188.72 424.781 1189.66 424.781C1190.59 424.781 1191.42 424.979 1192.15 425.375C1192.87 425.771 1193.44 426.305 1193.85 426.977C1194.26 427.648 1194.47 428.396 1194.47 429.219C1194.47 429.807 1194.36 430.383 1194.15 430.945C1193.94 431.503 1193.58 432.125 1193.05 432.812C1192.54 433.495 1191.82 434.328 1190.91 435.312L1187.31 439.156V439.281H1194.75V441H1184.66Z" fill="#24FF00"/>
<rect x="1050.5" y="150.5" width="149" height="149" fill="#910F17" stroke="#24FF00"/>
<path d="M1170.99 233V231.594L1176.27 225.812C1176.89 225.135 1177.4 224.547 1177.8 224.047C1178.21 223.542 1178.5 223.068 1178.7 222.625C1178.89 222.177 1178.99 221.708 1178.99 221.219C1178.99 220.656 1178.86 220.169 1178.59 219.758C1178.32 219.346 1177.96 219.029 1177.49 218.805C1177.03 218.581 1176.51 218.469 1175.93 218.469C1175.32 218.469 1174.78 218.596 1174.32 218.852C1173.87 219.102 1173.52 219.453 1173.27 219.906C1173.02 220.359 1172.9 220.891 1172.9 221.5H1171.05C1171.05 220.562 1171.27 219.74 1171.7 219.031C1172.14 218.323 1172.72 217.771 1173.47 217.375C1174.22 216.979 1175.06 216.781 1175.99 216.781C1176.93 216.781 1177.76 216.979 1178.48 217.375C1179.21 217.771 1179.78 218.305 1180.19 218.977C1180.6 219.648 1180.8 220.396 1180.8 221.219C1180.8 221.807 1180.7 222.383 1180.48 222.945C1180.28 223.503 1179.91 224.125 1179.39 224.812C1178.88 225.495 1178.16 226.328 1177.24 227.312L1173.65 231.156V231.281H1181.09V233H1170.99ZM1189.72 233.219C1188.69 233.219 1187.77 233.042 1186.96 232.687C1186.16 232.333 1185.52 231.841 1185.05 231.211C1184.58 230.576 1184.32 229.839 1184.28 229H1186.25C1186.29 229.516 1186.47 229.961 1186.78 230.336C1187.09 230.706 1187.5 230.992 1188.01 231.195C1188.51 231.398 1189.07 231.5 1189.69 231.5C1190.38 231.5 1190.98 231.38 1191.52 231.141C1192.05 230.901 1192.46 230.568 1192.77 230.141C1193.07 229.714 1193.22 229.219 1193.22 228.656C1193.22 228.068 1193.07 227.549 1192.78 227.102C1192.49 226.648 1192.06 226.294 1191.5 226.039C1190.94 225.784 1190.25 225.656 1189.44 225.656H1188.16V223.937H1189.44C1190.07 223.937 1190.63 223.823 1191.11 223.594C1191.59 223.365 1191.97 223.042 1192.24 222.625C1192.52 222.208 1192.66 221.719 1192.66 221.156C1192.66 220.615 1192.54 220.143 1192.3 219.742C1192.06 219.341 1191.72 219.029 1191.28 218.805C1190.85 218.581 1190.34 218.469 1189.75 218.469C1189.2 218.469 1188.68 218.57 1188.19 218.773C1187.7 218.971 1187.31 219.26 1187 219.641C1186.69 220.016 1186.53 220.469 1186.5 221H1184.63C1184.66 220.161 1184.91 219.427 1185.38 218.797C1185.86 218.161 1186.48 217.667 1187.24 217.312C1188.01 216.958 1188.86 216.781 1189.78 216.781C1190.77 216.781 1191.62 216.982 1192.33 217.383C1193.04 217.779 1193.58 218.302 1193.96 218.953C1194.34 219.604 1194.53 220.307 1194.53 221.063C1194.53 221.964 1194.29 222.732 1193.82 223.367C1193.35 224.003 1192.71 224.443 1191.91 224.688V224.812C1192.92 224.979 1193.71 225.409 1194.27 226.102C1194.84 226.789 1195.13 227.641 1195.13 228.656C1195.13 229.526 1194.89 230.307 1194.41 231C1193.95 231.687 1193.3 232.229 1192.49 232.625C1191.68 233.021 1190.76 233.219 1189.72 233.219Z" fill="#24FF00"/>
<rect x="1050.5" y="0.5" width="149" height="149" fill="#151515" stroke="#24FF00"/>
<path d="M1171.11 25V23.5938L1176.39 17.8125C1177.01 17.1354 1177.52 16.5469 1177.92 16.0469C1178.32 15.5417 1178.62 15.0677 1178.81 14.625C1179.01 14.1771 1179.11 13.7083 1179.11 13.2187C1179.11 12.6563 1178.97 12.1693 1178.7 11.7578C1178.44 11.3464 1178.07 11.0286 1177.61 10.8047C1177.15 10.5807 1176.63 10.4687 1176.05 10.4687C1175.43 10.4687 1174.9 10.5964 1174.44 10.8516C1173.99 11.1016 1173.63 11.4531 1173.38 11.9062C1173.14 12.3594 1173.02 12.8906 1173.02 13.5H1171.17C1171.17 12.5625 1171.39 11.7396 1171.82 11.0312C1172.25 10.3229 1172.84 9.77083 1173.59 9.375C1174.34 8.97917 1175.18 8.78125 1176.11 8.78125C1177.05 8.78125 1177.88 8.97917 1178.6 9.375C1179.33 9.77083 1179.89 10.3047 1180.31 10.9766C1180.72 11.6484 1180.92 12.3958 1180.92 13.2187C1180.92 13.8073 1180.82 14.3828 1180.6 14.9453C1180.39 15.5026 1180.03 16.125 1179.51 16.8125C1178.99 17.4948 1178.28 18.3281 1177.36 19.3125L1173.77 23.1562V23.2812H1181.2V25H1171.11ZM1183.71 21.7187V20.125L1190.74 9H1191.9V11.4688H1191.12L1185.81 19.875V20H1195.27V21.7187H1183.71ZM1191.24 25V21.2344V20.4922V9H1193.09V25H1191.24Z" fill="#24FF00"/>
<rect x="900.5" y="0.5" width="149" height="149" fill="#910F17" stroke="#24FF00"/>
<path d="M906.883 25V23.5938L912.164 17.8125C912.784 17.1354 913.294 16.5469 913.695 16.0469C914.096 15.5417 914.393 15.0677 914.586 14.625C914.784 14.1771 914.883 13.7083 914.883 13.2187C914.883 12.6563 914.747 12.1693 914.477 11.7578C914.211 11.3464 913.846 11.0286 913.383 10.8047C912.919 10.5807 912.398 10.4687 911.82 10.4687C911.206 10.4687 910.669 10.5964 910.211 10.8516C909.758 11.1016 909.406 11.4531 909.156 11.9062C908.911 12.3594 908.789 12.8906 908.789 13.5H906.945C906.945 12.5625 907.161 11.7396 907.594 11.0312C908.026 10.3229 908.615 9.77083 909.359 9.375C910.109 8.97917 910.951 8.78125 911.883 8.78125C912.82 8.78125 913.651 8.97917 914.375 9.375C915.099 9.77083 915.667 10.3047 916.078 10.9766C916.49 11.6484 916.695 12.3958 916.695 13.2187C916.695 13.8073 916.589 14.3828 916.375 14.9453C916.167 15.5026 915.802 16.125 915.281 16.8125C914.766 17.4948 914.049 18.3281 913.133 19.3125L909.539 23.1562V23.2812H916.977V25H906.883ZM925.828 9V25H923.891V11.0312H923.797L919.891 13.625V11.6562L923.891 9H925.828Z" fill="#24FF00"/>
<rect x="900.5" y="150.5" width="149" height="149" fill="#151515" stroke="#24FF00"/>
<path d="M905.121 233V231.594L910.402 225.812C911.022 225.135 911.533 224.547 911.934 224.047C912.335 223.542 912.632 223.068 912.824 222.625C913.022 222.177 913.121 221.708 913.121 221.219C913.121 220.656 912.986 220.169 912.715 219.758C912.449 219.346 912.085 219.029 911.621 218.805C911.158 218.581 910.637 218.469 910.059 218.469C909.444 218.469 908.908 218.596 908.449 218.852C907.996 219.102 907.645 219.453 907.395 219.906C907.15 220.359 907.027 220.891 907.027 221.5H905.184C905.184 220.562 905.4 219.74 905.832 219.031C906.264 218.323 906.853 217.771 907.598 217.375C908.348 216.979 909.189 216.781 910.121 216.781C911.059 216.781 911.889 216.979 912.613 217.375C913.337 217.771 913.905 218.305 914.316 218.977C914.728 219.648 914.934 220.396 914.934 221.219C914.934 221.807 914.827 222.383 914.613 222.945C914.405 223.503 914.04 224.125 913.52 224.812C913.004 225.495 912.288 226.328 911.371 227.312L907.777 231.156V231.281H915.215V233H905.121ZM923.66 233.219C922.483 233.219 921.48 232.898 920.652 232.258C919.824 231.612 919.191 230.677 918.754 229.453C918.316 228.224 918.098 226.74 918.098 225C918.098 223.271 918.316 221.794 918.754 220.57C919.197 219.341 919.832 218.404 920.66 217.758C921.493 217.107 922.493 216.781 923.66 216.781C924.827 216.781 925.824 217.107 926.652 217.758C927.486 218.404 928.121 219.341 928.559 220.57C929.001 221.794 929.223 223.271 929.223 225C929.223 226.74 929.004 228.224 928.566 229.453C928.129 230.677 927.496 231.612 926.668 232.258C925.84 232.898 924.837 233.219 923.66 233.219ZM923.66 231.5C924.827 231.5 925.733 230.937 926.379 229.812C927.025 228.687 927.348 227.083 927.348 225C927.348 223.615 927.199 222.435 926.902 221.461C926.611 220.487 926.189 219.745 925.637 219.234C925.09 218.724 924.431 218.469 923.66 218.469C922.504 218.469 921.6 219.039 920.949 220.18C920.298 221.315 919.973 222.922 919.973 225C919.973 226.385 920.118 227.562 920.41 228.531C920.702 229.5 921.121 230.237 921.668 230.742C922.22 231.247 922.884 231.5 923.66 231.5Z" fill="#24FF00"/>
<rect x="900.5" y="300.5" width="149" height="149" fill="#910F17" stroke="#24FF00"/>
<path d="M912.304 425V441H910.366V427.031H910.272L906.366 429.625V427.656L910.366 425H912.304ZM921.999 424.781C922.655 424.786 923.312 424.911 923.968 425.156C924.624 425.401 925.223 425.807 925.765 426.375C926.306 426.937 926.741 427.706 927.069 428.68C927.397 429.654 927.562 430.875 927.562 432.344C927.562 433.766 927.426 435.029 927.155 436.133C926.89 437.232 926.504 438.159 925.999 438.914C925.499 439.669 924.89 440.242 924.171 440.633C923.457 441.023 922.65 441.219 921.749 441.219C920.853 441.219 920.054 441.042 919.351 440.687C918.653 440.328 918.08 439.831 917.632 439.195C917.189 438.555 916.905 437.812 916.78 436.969H918.687C918.858 437.703 919.2 438.31 919.71 438.789C920.226 439.263 920.905 439.5 921.749 439.5C922.983 439.5 923.957 438.961 924.671 437.883C925.39 436.805 925.749 435.281 925.749 433.312H925.624C925.332 433.75 924.986 434.128 924.585 434.445C924.184 434.763 923.739 435.008 923.249 435.18C922.759 435.352 922.239 435.438 921.687 435.438C920.77 435.438 919.929 435.211 919.163 434.758C918.403 434.299 917.793 433.672 917.335 432.875C916.882 432.073 916.655 431.156 916.655 430.125C916.655 429.146 916.874 428.25 917.312 427.437C917.754 426.62 918.374 425.969 919.171 425.484C919.973 425 920.916 424.766 921.999 424.781ZM921.999 426.5C921.343 426.5 920.752 426.664 920.226 426.992C919.705 427.315 919.291 427.753 918.983 428.305C918.681 428.852 918.53 429.458 918.53 430.125C918.53 430.792 918.676 431.398 918.968 431.945C919.265 432.487 919.668 432.919 920.179 433.242C920.694 433.56 921.28 433.719 921.937 433.719C922.431 433.719 922.892 433.622 923.319 433.43C923.746 433.232 924.119 432.964 924.437 432.625C924.759 432.281 925.012 431.893 925.194 431.461C925.377 431.023 925.468 430.568 925.468 430.094C925.468 429.469 925.317 428.883 925.015 428.336C924.718 427.789 924.306 427.346 923.78 427.008C923.259 426.669 922.666 426.5 921.999 426.5Z" fill="#24FF00"/>
<rect x="1350.5" y="300.5" width="149" height="149" fill="#151515" stroke="#24FF00"/>
<path d="M1471.22 441V439.594L1476.5 433.812C1477.12 433.135 1477.63 432.547 1478.03 432.047C1478.43 431.542 1478.73 431.068 1478.92 430.625C1479.12 430.177 1479.22 429.708 1479.22 429.219C1479.22 428.656 1479.08 428.169 1478.81 427.758C1478.55 427.346 1478.18 427.029 1477.72 426.805C1477.25 426.581 1476.73 426.469 1476.16 426.469C1475.54 426.469 1475 426.596 1474.55 426.852C1474.09 427.102 1473.74 427.453 1473.49 427.906C1473.25 428.359 1473.12 428.891 1473.12 429.5H1471.28C1471.28 428.562 1471.5 427.74 1471.93 427.031C1472.36 426.323 1472.95 425.771 1473.69 425.375C1474.44 424.979 1475.29 424.781 1476.22 424.781C1477.16 424.781 1477.99 424.979 1478.71 425.375C1479.43 425.771 1480 426.305 1480.41 426.977C1480.82 427.648 1481.03 428.396 1481.03 429.219C1481.03 429.807 1480.92 430.383 1480.71 430.945C1480.5 431.503 1480.14 432.125 1479.62 432.812C1479.1 433.495 1478.38 434.328 1477.47 435.312L1473.87 439.156V439.281H1481.31V441H1471.22ZM1489.66 441.219C1488.59 441.219 1487.64 441.029 1486.82 440.648C1486 440.263 1485.36 439.734 1484.91 439.062C1484.45 438.385 1484.22 437.615 1484.23 436.75C1484.22 436.073 1484.35 435.448 1484.62 434.875C1484.89 434.297 1485.26 433.815 1485.73 433.43C1486.21 433.039 1486.74 432.792 1487.32 432.688V432.594C1486.55 432.396 1485.94 431.966 1485.49 431.305C1485.04 430.638 1484.81 429.88 1484.82 429.031C1484.81 428.219 1485.02 427.492 1485.44 426.852C1485.85 426.211 1486.43 425.706 1487.16 425.336C1487.89 424.966 1488.73 424.781 1489.66 424.781C1490.59 424.781 1491.42 424.966 1492.15 425.336C1492.88 425.706 1493.45 426.211 1493.87 426.852C1494.29 427.492 1494.5 428.219 1494.51 429.031C1494.5 429.88 1494.27 430.638 1493.81 431.305C1493.36 431.966 1492.76 432.396 1492.01 432.594V432.688C1492.58 432.792 1493.11 433.039 1493.57 433.43C1494.03 433.815 1494.4 434.297 1494.68 434.875C1494.95 435.448 1495.1 436.073 1495.1 436.75C1495.1 437.615 1494.86 438.385 1494.4 439.062C1493.94 439.734 1493.3 440.263 1492.48 440.648C1491.67 441.029 1490.73 441.219 1489.66 441.219ZM1489.66 439.5C1490.39 439.5 1491.01 439.383 1491.54 439.148C1492.06 438.914 1492.47 438.583 1492.76 438.156C1493.04 437.729 1493.19 437.229 1493.19 436.656C1493.19 436.052 1493.03 435.518 1492.73 435.055C1492.42 434.591 1492 434.227 1491.47 433.961C1490.94 433.695 1490.34 433.562 1489.66 433.562C1488.98 433.562 1488.37 433.695 1487.83 433.961C1487.3 434.227 1486.88 434.591 1486.58 435.055C1486.28 435.518 1486.13 436.052 1486.13 436.656C1486.13 437.229 1486.26 437.729 1486.55 438.156C1486.83 438.583 1487.24 438.914 1487.77 439.148C1488.3 439.383 1488.93 439.5 1489.66 439.5ZM1489.66 431.906C1490.24 431.906 1490.74 431.792 1491.19 431.562C1491.63 431.333 1491.99 431.013 1492.24 430.602C1492.5 430.19 1492.63 429.708 1492.63 429.156C1492.63 428.615 1492.5 428.143 1492.25 427.742C1492 427.336 1491.65 427.023 1491.21 426.805C1490.77 426.581 1490.25 426.469 1489.66 426.469C1489.06 426.469 1488.54 426.581 1488.09 426.805C1487.64 427.023 1487.3 427.336 1487.05 427.742C1486.81 428.143 1486.69 428.615 1486.69 429.156C1486.69 429.708 1486.81 430.19 1487.06 430.602C1487.32 431.013 1487.67 431.333 1488.12 431.562C1488.56 431.792 1489.08 431.906 1489.66 431.906Z" fill="#24FF00"/>
<rect x="1350.5" y="150.5" width="149" height="149" fill="#151515" stroke="#24FF00"/>
<path d="M1471.13 233V231.594L1476.41 225.812C1477.03 225.135 1477.54 224.547 1477.94 224.047C1478.35 223.542 1478.64 223.068 1478.83 222.625C1479.03 222.177 1479.13 221.708 1479.13 221.219C1479.13 220.656 1479 220.169 1478.73 219.758C1478.46 219.346 1478.1 219.029 1477.63 218.805C1477.17 218.581 1476.65 218.469 1476.07 218.469C1475.45 218.469 1474.92 218.596 1474.46 218.852C1474.01 219.102 1473.66 219.453 1473.41 219.906C1473.16 220.359 1473.04 220.891 1473.04 221.5H1471.19C1471.19 220.562 1471.41 219.74 1471.84 219.031C1472.28 218.323 1472.86 217.771 1473.61 217.375C1474.36 216.979 1475.2 216.781 1476.13 216.781C1477.07 216.781 1477.9 216.979 1478.62 217.375C1479.35 217.771 1479.92 218.305 1480.33 218.977C1480.74 219.648 1480.94 220.396 1480.94 221.219C1480.94 221.807 1480.84 222.383 1480.62 222.945C1480.42 223.503 1480.05 224.125 1479.53 224.812C1479.01 225.495 1478.3 226.328 1477.38 227.312L1473.79 231.156V231.281H1481.23V233H1471.13ZM1489.55 216.781C1490.2 216.786 1490.86 216.911 1491.51 217.156C1492.17 217.401 1492.77 217.807 1493.31 218.375C1493.85 218.937 1494.29 219.706 1494.62 220.68C1494.94 221.654 1495.11 222.875 1495.11 224.344C1495.11 225.766 1494.97 227.029 1494.7 228.133C1494.44 229.232 1494.05 230.159 1493.55 230.914C1493.05 231.669 1492.44 232.242 1491.72 232.633C1491 233.023 1490.2 233.219 1489.3 233.219C1488.4 233.219 1487.6 233.042 1486.9 232.687C1486.2 232.328 1485.63 231.831 1485.18 231.195C1484.74 230.555 1484.45 229.812 1484.33 228.969H1486.23C1486.41 229.703 1486.75 230.31 1487.26 230.789C1487.77 231.263 1488.45 231.5 1489.3 231.5C1490.53 231.5 1491.5 230.961 1492.22 229.883C1492.94 228.805 1493.3 227.281 1493.3 225.312H1493.17C1492.88 225.75 1492.53 226.128 1492.13 226.445C1491.73 226.763 1491.29 227.008 1490.8 227.18C1490.31 227.352 1489.79 227.438 1489.23 227.438C1488.32 227.438 1487.48 227.211 1486.71 226.758C1485.95 226.299 1485.34 225.672 1484.88 224.875C1484.43 224.073 1484.2 223.156 1484.2 222.125C1484.2 221.146 1484.42 220.25 1484.86 219.437C1485.3 218.62 1485.92 217.969 1486.72 217.484C1487.52 217 1488.46 216.766 1489.55 216.781ZM1489.55 218.5C1488.89 218.5 1488.3 218.664 1487.77 218.992C1487.25 219.315 1486.84 219.753 1486.53 220.305C1486.23 220.852 1486.08 221.458 1486.08 222.125C1486.08 222.792 1486.22 223.398 1486.51 223.945C1486.81 224.487 1487.22 224.919 1487.73 225.242C1488.24 225.56 1488.83 225.719 1489.48 225.719C1489.98 225.719 1490.44 225.622 1490.87 225.43C1491.29 225.232 1491.67 224.964 1491.98 224.625C1492.31 224.281 1492.56 223.893 1492.74 223.461C1492.92 223.023 1493.01 222.568 1493.01 222.094C1493.01 221.469 1492.86 220.883 1492.56 220.336C1492.26 219.789 1491.85 219.346 1491.33 219.008C1490.81 218.669 1490.21 218.5 1489.55 218.5Z" fill="#24FF00"/>
<rect x="1350.5" y="0.5" width="149" height="149" fill="#910F17" stroke="#24FF00"/>
<path d="M1476.18 25.2187C1475.15 25.2187 1474.23 25.0417 1473.43 24.6875C1472.62 24.3333 1471.99 23.8411 1471.51 23.2109C1471.04 22.5755 1470.79 21.8385 1470.75 21H1472.71C1472.76 21.5156 1472.93 21.9609 1473.25 22.3359C1473.56 22.7057 1473.97 22.9922 1474.47 23.1953C1474.98 23.3984 1475.54 23.5 1476.15 23.5C1476.84 23.5 1477.45 23.3802 1477.98 23.1406C1478.51 22.901 1478.93 22.5677 1479.23 22.1406C1479.53 21.7135 1479.68 21.2188 1479.68 20.6562C1479.68 20.0677 1479.54 19.5495 1479.25 19.1016C1478.95 18.6484 1478.53 18.2943 1477.96 18.0391C1477.4 17.7839 1476.71 17.6562 1475.9 17.6562H1474.62V15.9375H1475.9C1476.54 15.9375 1477.1 15.8229 1477.57 15.5937C1478.06 15.3646 1478.44 15.0417 1478.71 14.625C1478.98 14.2083 1479.12 13.7187 1479.12 13.1562C1479.12 12.6146 1479 12.1432 1478.76 11.7422C1478.52 11.3411 1478.18 11.0286 1477.75 10.8047C1477.31 10.5807 1476.8 10.4687 1476.21 10.4687C1475.66 10.4687 1475.14 10.5703 1474.65 10.7734C1474.17 10.9714 1473.77 11.2604 1473.46 11.6406C1473.16 12.0156 1472.99 12.4688 1472.96 13H1471.09C1471.12 12.1615 1471.37 11.4271 1471.85 10.7969C1472.32 10.1615 1472.94 9.66667 1473.71 9.3125C1474.48 8.95833 1475.32 8.78125 1476.25 8.78125C1477.24 8.78125 1478.08 8.98177 1478.79 9.38281C1479.5 9.77865 1480.05 10.3021 1480.43 10.9531C1480.81 11.6042 1481 12.3073 1481 13.0625C1481 13.9635 1480.76 14.7318 1480.29 15.3672C1479.82 16.0026 1479.18 16.4427 1478.37 16.6875V16.8125C1479.38 16.9792 1480.17 17.4089 1480.74 18.1016C1481.31 18.7891 1481.59 19.6406 1481.59 20.6562C1481.59 21.526 1481.35 22.3073 1480.88 23C1480.41 23.6875 1479.77 24.2292 1478.96 24.625C1478.14 25.0208 1477.22 25.2187 1476.18 25.2187ZM1490 25.2187C1488.83 25.2187 1487.82 24.8984 1487 24.2578C1486.17 23.612 1485.54 22.6771 1485.1 21.4531C1484.66 20.224 1484.44 18.7396 1484.44 17C1484.44 15.2708 1484.66 13.7943 1485.1 12.5703C1485.54 11.3411 1486.18 10.4036 1487 9.75781C1487.84 9.10677 1488.84 8.78125 1490 8.78125C1491.17 8.78125 1492.17 9.10677 1493 9.75781C1493.83 10.4036 1494.46 11.3411 1494.9 12.5703C1495.35 13.7943 1495.57 15.2708 1495.57 17C1495.57 18.7396 1495.35 20.224 1494.91 21.4531C1494.47 22.6771 1493.84 23.612 1493.01 24.2578C1492.18 24.8984 1491.18 25.2187 1490 25.2187ZM1490 23.5C1491.17 23.5 1492.08 22.9375 1492.72 21.8125C1493.37 20.6875 1493.69 19.0833 1493.69 17C1493.69 15.6146 1493.54 14.4349 1493.25 13.4609C1492.95 12.487 1492.53 11.7448 1491.98 11.2344C1491.43 10.724 1490.77 10.4687 1490 10.4687C1488.85 10.4687 1487.94 11.0391 1487.29 12.1797C1486.64 13.3151 1486.32 14.9219 1486.32 17C1486.32 18.3854 1486.46 19.5625 1486.75 20.5312C1487.05 21.5 1487.46 22.237 1488.01 22.7422C1488.56 23.2474 1489.23 23.5 1490 23.5Z" fill="#24FF00"/>
<rect x="1200.5" y="0.5" width="149" height="149" fill="#910F17" stroke="#24FF00"/>
<path d="M1205.71 25V23.5938L1210.99 17.8125C1211.61 17.1354 1212.12 16.5469 1212.52 16.0469C1212.93 15.5417 1213.22 15.0677 1213.42 14.625C1213.61 14.1771 1213.71 13.7083 1213.71 13.2187C1213.71 12.6563 1213.58 12.1693 1213.31 11.7578C1213.04 11.3464 1212.68 11.0286 1212.21 10.8047C1211.75 10.5807 1211.23 10.4687 1210.65 10.4687C1210.03 10.4687 1209.5 10.5964 1209.04 10.8516C1208.59 11.1016 1208.24 11.4531 1207.99 11.9062C1207.74 12.3594 1207.62 12.8906 1207.62 13.5H1205.77C1205.77 12.5625 1205.99 11.7396 1206.42 11.0312C1206.86 10.3229 1207.44 9.77083 1208.19 9.375C1208.94 8.97917 1209.78 8.78125 1210.71 8.78125C1211.65 8.78125 1212.48 8.97917 1213.2 9.375C1213.93 9.77083 1214.5 10.3047 1214.91 10.9766C1215.32 11.6484 1215.52 12.3958 1215.52 13.2187C1215.52 13.8073 1215.42 14.3828 1215.2 14.9453C1215 15.5026 1214.63 16.125 1214.11 16.8125C1213.59 17.4948 1212.88 18.3281 1211.96 19.3125L1208.37 23.1562V23.2812H1215.81V25H1205.71ZM1219.53 25L1226.69 10.8437V10.7187H1218.44V9H1228.69V10.8125L1221.56 25H1219.53Z" fill="#24FF00"/>
<rect x="1200.5" y="150.5" width="149" height="149" fill="#151515" stroke="#24FF00"/>
<path d="M1205.13 233V231.594L1210.41 225.812C1211.03 225.135 1211.54 224.547 1211.94 224.047C1212.35 223.542 1212.64 223.068 1212.83 222.625C1213.03 222.177 1213.13 221.708 1213.13 221.219C1213.13 220.656 1213 220.169 1212.73 219.758C1212.46 219.346 1212.1 219.029 1211.63 218.805C1211.17 218.581 1210.65 218.469 1210.07 218.469C1209.45 218.469 1208.92 218.596 1208.46 218.852C1208.01 219.102 1207.66 219.453 1207.41 219.906C1207.16 220.359 1207.04 220.891 1207.04 221.5H1205.19C1205.19 220.562 1205.41 219.74 1205.84 219.031C1206.28 218.323 1206.86 217.771 1207.61 217.375C1208.36 216.979 1209.2 216.781 1210.13 216.781C1211.07 216.781 1211.9 216.979 1212.62 217.375C1213.35 217.771 1213.92 218.305 1214.33 218.977C1214.74 219.648 1214.94 220.396 1214.94 221.219C1214.94 221.807 1214.84 222.383 1214.62 222.945C1214.42 223.503 1214.05 224.125 1213.53 224.812C1213.01 225.495 1212.3 226.328 1211.38 227.312L1207.79 231.156V231.281H1215.23V233H1205.13ZM1223.76 233.219C1223.11 233.208 1222.45 233.083 1221.8 232.844C1221.14 232.604 1220.54 232.201 1220 231.633C1219.46 231.06 1219.02 230.286 1218.69 229.312C1218.37 228.333 1218.2 227.104 1218.2 225.625C1218.2 224.208 1218.33 222.953 1218.6 221.859C1218.87 220.76 1219.25 219.836 1219.76 219.086C1220.26 218.331 1220.87 217.758 1221.58 217.367C1222.3 216.977 1223.11 216.781 1224.01 216.781C1224.91 216.781 1225.71 216.961 1226.41 217.32C1227.11 217.674 1227.68 218.169 1228.12 218.805C1228.57 219.44 1228.85 220.172 1228.98 221H1227.08C1226.9 220.281 1226.56 219.685 1226.05 219.211C1225.54 218.737 1224.86 218.5 1224.01 218.5C1222.78 218.5 1221.8 219.039 1221.08 220.117C1220.38 221.195 1220.02 222.708 1220.01 224.656H1220.14C1220.43 224.214 1220.78 223.836 1221.18 223.523C1221.58 223.206 1222.03 222.961 1222.52 222.789C1223.01 222.617 1223.53 222.531 1224.08 222.531C1224.99 222.531 1225.83 222.76 1226.59 223.219C1227.35 223.672 1227.96 224.299 1228.42 225.102C1228.88 225.898 1229.11 226.812 1229.11 227.844C1229.11 228.833 1228.89 229.74 1228.44 230.562C1228 231.38 1227.38 232.031 1226.58 232.516C1225.78 232.995 1224.84 233.229 1223.76 233.219ZM1223.76 231.5C1224.42 231.5 1225.01 231.336 1225.53 231.008C1226.06 230.68 1226.47 230.24 1226.77 229.687C1227.08 229.135 1227.23 228.521 1227.23 227.844C1227.23 227.182 1227.08 226.581 1226.79 226.039C1226.5 225.492 1226.09 225.057 1225.58 224.734C1225.07 224.411 1224.48 224.25 1223.83 224.25C1223.33 224.25 1222.87 224.349 1222.44 224.547C1222.02 224.74 1221.64 225.005 1221.32 225.344C1221 225.682 1220.75 226.07 1220.57 226.508C1220.39 226.94 1220.3 227.396 1220.3 227.875C1220.3 228.51 1220.44 229.104 1220.74 229.656C1221.04 230.208 1221.45 230.654 1221.98 230.992C1222.5 231.331 1223.1 231.5 1223.76 231.5Z" fill="#24FF00"/>
<rect x="1200.5" y="300.5" width="149" height="149" fill="#910F17" stroke="#24FF00"/>
<path d="M1205.3 441V439.594L1210.58 433.812C1211.2 433.135 1211.72 432.547 1212.12 432.047C1212.52 431.542 1212.81 431.068 1213.01 430.625C1213.2 430.177 1213.3 429.708 1213.3 429.219C1213.3 428.656 1213.17 428.169 1212.9 427.758C1212.63 427.346 1212.27 427.029 1211.8 426.805C1211.34 426.581 1210.82 426.469 1210.24 426.469C1209.63 426.469 1209.09 426.596 1208.63 426.852C1208.18 427.102 1207.83 427.453 1207.58 427.906C1207.33 428.359 1207.21 428.891 1207.21 429.5H1205.37C1205.37 428.562 1205.58 427.74 1206.01 427.031C1206.45 426.323 1207.04 425.771 1207.78 425.375C1208.53 424.979 1209.37 424.781 1210.3 424.781C1211.24 424.781 1212.07 424.979 1212.8 425.375C1213.52 425.771 1214.09 426.305 1214.5 426.977C1214.91 427.648 1215.12 428.396 1215.12 429.219C1215.12 429.807 1215.01 430.383 1214.8 430.945C1214.59 431.503 1214.22 432.125 1213.7 432.812C1213.19 433.495 1212.47 434.328 1211.55 435.312L1207.96 439.156V439.281H1215.4V441H1205.3ZM1223.62 441.219C1222.71 441.219 1221.88 441.036 1221.15 440.672C1220.41 440.307 1219.82 439.807 1219.38 439.172C1218.94 438.536 1218.7 437.812 1218.66 437H1220.53C1220.6 437.724 1220.93 438.323 1221.51 438.797C1222.1 439.266 1222.81 439.5 1223.62 439.5C1224.28 439.5 1224.86 439.346 1225.37 439.039C1225.89 438.732 1226.29 438.31 1226.58 437.773C1226.88 437.232 1227.03 436.62 1227.03 435.937C1227.03 435.24 1226.88 434.617 1226.57 434.07C1226.27 433.518 1225.85 433.083 1225.32 432.766C1224.79 432.448 1224.18 432.286 1223.5 432.281C1223.01 432.276 1222.51 432.352 1221.99 432.508C1221.48 432.659 1221.05 432.854 1220.72 433.094L1218.91 432.875L1219.87 425H1228.19V426.719H1221.5L1220.94 431.437H1221.03C1221.36 431.177 1221.77 430.961 1222.26 430.789C1222.76 430.617 1223.28 430.531 1223.81 430.531C1224.79 430.531 1225.66 430.766 1226.43 431.234C1227.2 431.698 1227.8 432.333 1228.24 433.141C1228.68 433.948 1228.91 434.87 1228.91 435.906C1228.91 436.927 1228.68 437.839 1228.22 438.641C1227.76 439.437 1227.14 440.068 1226.34 440.531C1225.55 440.99 1224.64 441.219 1223.62 441.219Z" fill="#24FF00"/>
<rect x="1650.5" y="300.5" width="149" height="149" fill="#910F17" stroke="#24FF00"/>
<path d="M1776 441.219C1774.97 441.219 1774.05 441.042 1773.24 440.687C1772.44 440.333 1771.8 439.841 1771.33 439.211C1770.86 438.576 1770.61 437.839 1770.56 437H1772.53C1772.57 437.516 1772.75 437.961 1773.06 438.336C1773.38 438.706 1773.78 438.992 1774.29 439.195C1774.8 439.398 1775.36 439.5 1775.97 439.5C1776.66 439.5 1777.27 439.38 1777.8 439.141C1778.33 438.901 1778.75 438.568 1779.05 438.141C1779.35 437.714 1779.5 437.219 1779.5 436.656C1779.5 436.068 1779.36 435.549 1779.06 435.102C1778.77 434.648 1778.34 434.294 1777.78 434.039C1777.22 433.784 1776.53 433.656 1775.72 433.656H1774.44V431.937H1775.72C1776.36 431.937 1776.91 431.823 1777.39 431.594C1777.88 431.365 1778.25 431.042 1778.52 430.625C1778.8 430.208 1778.94 429.719 1778.94 429.156C1778.94 428.615 1778.82 428.143 1778.58 427.742C1778.34 427.341 1778 427.029 1777.56 426.805C1777.13 426.581 1776.62 426.469 1776.03 426.469C1775.48 426.469 1774.96 426.57 1774.47 426.773C1773.99 426.971 1773.59 427.26 1773.28 427.641C1772.97 428.016 1772.81 428.469 1772.78 429H1770.91C1770.94 428.161 1771.19 427.427 1771.67 426.797C1772.14 426.161 1772.76 425.667 1773.52 425.312C1774.3 424.958 1775.14 424.781 1776.06 424.781C1777.05 424.781 1777.9 424.982 1778.61 425.383C1779.32 425.779 1779.86 426.302 1780.24 426.953C1780.62 427.604 1780.81 428.307 1780.81 429.063C1780.81 429.964 1780.58 430.732 1780.1 431.367C1779.63 432.003 1779 432.443 1778.19 432.688V432.812C1779.2 432.979 1779.99 433.409 1780.56 434.102C1781.12 434.789 1781.41 435.641 1781.41 436.656C1781.41 437.526 1781.17 438.307 1780.7 439C1780.23 439.687 1779.59 440.229 1778.77 440.625C1777.96 441.021 1777.04 441.219 1776 441.219ZM1784.23 437.719V436.125L1791.26 425H1792.42V427.469H1791.63L1786.32 435.875V436H1795.79V437.719H1784.23ZM1791.76 441V437.234V436.492V425H1793.6V441H1791.76Z" fill="#24FF00"/>
<rect x="1650.5" y="150.5" width="149" height="149" fill="#151515" stroke="#24FF00"/>
<path d="M1776.37 233.219C1775.33 233.219 1774.42 233.042 1773.61 232.687C1772.81 232.333 1772.17 231.841 1771.69 231.211C1771.23 230.576 1770.97 229.839 1770.93 229H1772.9C1772.94 229.516 1773.12 229.961 1773.43 230.336C1773.74 230.706 1774.15 230.992 1774.66 231.195C1775.16 231.398 1775.72 231.5 1776.33 231.5C1777.02 231.5 1777.63 231.38 1778.16 231.141C1778.69 230.901 1779.11 230.568 1779.41 230.141C1779.72 229.714 1779.87 229.219 1779.87 228.656C1779.87 228.068 1779.72 227.549 1779.43 227.102C1779.14 226.648 1778.71 226.294 1778.15 226.039C1777.58 225.784 1776.9 225.656 1776.08 225.656H1774.8V223.937H1776.08C1776.72 223.937 1777.28 223.823 1777.76 223.594C1778.24 223.365 1778.62 223.042 1778.89 222.625C1779.17 222.208 1779.3 221.719 1779.3 221.156C1779.3 220.615 1779.18 220.143 1778.94 219.742C1778.7 219.341 1778.37 219.029 1777.93 218.805C1777.5 218.581 1776.99 218.469 1776.4 218.469C1775.85 218.469 1775.32 218.57 1774.83 218.773C1774.35 218.971 1773.95 219.26 1773.65 219.641C1773.34 220.016 1773.17 220.469 1773.15 221H1771.27C1771.3 220.161 1771.56 219.427 1772.03 218.797C1772.5 218.161 1773.12 217.667 1773.89 217.312C1774.66 216.958 1775.51 216.781 1776.43 216.781C1777.42 216.781 1778.27 216.982 1778.98 217.383C1779.68 217.779 1780.23 218.302 1780.61 218.953C1780.99 219.604 1781.18 220.307 1781.18 221.063C1781.18 221.964 1780.94 222.732 1780.47 223.367C1780 224.003 1779.36 224.443 1778.55 224.688V224.812C1779.56 224.979 1780.35 225.409 1780.92 226.102C1781.49 226.789 1781.77 227.641 1781.77 228.656C1781.77 229.526 1781.54 230.307 1781.06 231C1780.59 231.687 1779.95 232.229 1779.14 232.625C1778.33 233.021 1777.4 233.219 1776.37 233.219ZM1789.97 233.219C1789.05 233.219 1788.23 233.036 1787.49 232.672C1786.76 232.307 1786.17 231.807 1785.73 231.172C1785.28 230.536 1785.04 229.812 1785 229H1786.87C1786.95 229.724 1787.28 230.323 1787.86 230.797C1788.45 231.266 1789.15 231.5 1789.97 231.5C1790.62 231.5 1791.21 231.346 1791.72 231.039C1792.23 230.732 1792.64 230.31 1792.93 229.773C1793.23 229.232 1793.37 228.62 1793.37 227.937C1793.37 227.24 1793.22 226.617 1792.91 226.07C1792.61 225.518 1792.19 225.083 1791.66 224.766C1791.13 224.448 1790.53 224.286 1789.84 224.281C1789.35 224.276 1788.85 224.352 1788.33 224.508C1787.82 224.659 1787.39 224.854 1787.06 225.094L1785.25 224.875L1786.22 217H1794.53V218.719H1787.84L1787.28 223.437H1787.37C1787.7 223.177 1788.11 222.961 1788.61 222.789C1789.1 222.617 1789.62 222.531 1790.16 222.531C1791.13 222.531 1792.01 222.766 1792.77 223.234C1793.54 223.698 1794.15 224.333 1794.58 225.141C1795.03 225.948 1795.25 226.87 1795.25 227.906C1795.25 228.927 1795.02 229.839 1794.56 230.641C1794.11 231.437 1793.48 232.068 1792.69 232.531C1791.89 232.99 1790.98 233.219 1789.97 233.219Z" fill="#24FF00"/>
<rect x="1650.5" y="0.5" width="149" height="149" fill="#910F17" stroke="#24FF00"/>
<path d="M1776.19 25.2187C1775.16 25.2187 1774.24 25.0417 1773.44 24.6875C1772.63 24.3333 1772 23.8411 1771.52 23.2109C1771.05 22.5755 1770.8 21.8385 1770.76 21H1772.73C1772.77 21.5156 1772.94 21.9609 1773.26 22.3359C1773.57 22.7057 1773.98 22.9922 1774.48 23.1953C1774.99 23.3984 1775.55 23.5 1776.16 23.5C1776.85 23.5 1777.46 23.3802 1777.99 23.1406C1778.52 22.901 1778.94 22.5677 1779.24 22.1406C1779.54 21.7135 1779.69 21.2188 1779.69 20.6562C1779.69 20.0677 1779.55 19.5495 1779.26 19.1016C1778.97 18.6484 1778.54 18.2943 1777.98 18.0391C1777.41 17.7839 1776.73 17.6562 1775.91 17.6562H1774.63V15.9375H1775.91C1776.55 15.9375 1777.11 15.8229 1777.58 15.5937C1778.07 15.3646 1778.45 15.0417 1778.72 14.625C1778.99 14.2083 1779.13 13.7187 1779.13 13.1562C1779.13 12.6146 1779.01 12.1432 1778.77 11.7422C1778.53 11.3411 1778.19 11.0286 1777.76 10.8047C1777.32 10.5807 1776.81 10.4687 1776.23 10.4687C1775.67 10.4687 1775.15 10.5703 1774.66 10.7734C1774.18 10.9714 1773.78 11.2604 1773.48 11.6406C1773.17 12.0156 1773 12.4688 1772.98 13H1771.1C1771.13 12.1615 1771.38 11.4271 1771.86 10.7969C1772.33 10.1615 1772.95 9.66667 1773.72 9.3125C1774.49 8.95833 1775.33 8.78125 1776.26 8.78125C1777.25 8.78125 1778.1 8.98177 1778.8 9.38281C1779.51 9.77865 1780.06 10.3021 1780.44 10.9531C1780.82 11.6042 1781.01 12.3073 1781.01 13.0625C1781.01 13.9635 1780.77 14.7318 1780.3 15.3672C1779.83 16.0026 1779.19 16.4427 1778.38 16.6875V16.8125C1779.39 16.9792 1780.18 17.4089 1780.75 18.1016C1781.32 18.7891 1781.6 19.6406 1781.6 20.6562C1781.6 21.526 1781.36 22.3073 1780.89 23C1780.42 23.6875 1779.78 24.2292 1778.97 24.625C1778.16 25.0208 1777.23 25.2187 1776.19 25.2187ZM1790.11 25.2187C1789.45 25.2083 1788.8 25.0833 1788.14 24.8437C1787.48 24.6042 1786.88 24.2005 1786.34 23.6328C1785.8 23.0599 1785.37 22.2865 1785.04 21.3125C1784.71 20.3333 1784.55 19.1042 1784.55 17.625C1784.55 16.2083 1784.68 14.9531 1784.94 13.8594C1785.21 12.7604 1785.6 11.8359 1786.1 11.0859C1786.61 10.3307 1787.22 9.75781 1787.93 9.36719C1788.65 8.97656 1789.46 8.78125 1790.36 8.78125C1791.25 8.78125 1792.05 8.96094 1792.75 9.32031C1793.45 9.67448 1794.03 10.1693 1794.47 10.8047C1794.91 11.4401 1795.2 12.1719 1795.33 13H1793.42C1793.24 12.2812 1792.9 11.6849 1792.39 11.2109C1791.88 10.737 1791.2 10.5 1790.36 10.5C1789.12 10.5 1788.14 11.0391 1787.43 12.1172C1786.72 13.1953 1786.36 14.7083 1786.36 16.6562H1786.48C1786.78 16.2135 1787.12 15.8359 1787.52 15.5234C1787.93 15.2057 1788.38 14.9609 1788.87 14.7891C1789.36 14.6172 1789.87 14.5312 1790.42 14.5312C1791.34 14.5312 1792.18 14.7604 1792.94 15.2187C1793.7 15.6719 1794.31 16.2995 1794.76 17.1016C1795.22 17.8984 1795.45 18.8125 1795.45 19.8438C1795.45 20.8333 1795.23 21.7396 1794.79 22.5625C1794.35 23.3802 1793.72 24.0312 1792.92 24.5156C1792.12 24.9948 1791.19 25.2292 1790.11 25.2187ZM1790.11 23.5C1790.76 23.5 1791.35 23.3359 1791.87 23.0078C1792.4 22.6797 1792.81 22.2396 1793.12 21.6875C1793.42 21.1354 1793.58 20.5208 1793.58 19.8438C1793.58 19.1823 1793.43 18.5807 1793.13 18.0391C1792.84 17.4922 1792.44 17.0573 1791.92 16.7344C1791.41 16.4115 1790.83 16.25 1790.17 16.25C1789.68 16.25 1789.22 16.349 1788.79 16.5469C1788.36 16.7396 1787.99 17.0052 1787.66 17.3437C1787.35 17.6823 1787.1 18.0703 1786.91 18.5078C1786.73 18.9401 1786.64 19.3958 1786.64 19.875C1786.64 20.5104 1786.79 21.1042 1787.08 21.6562C1787.39 22.2083 1787.8 22.6536 1788.32 22.9922C1788.85 23.3307 1789.44 23.5 1790.11 23.5Z" fill="#24FF00"/>
<rect x="1500.5" y="0.5" width="149" height="149" fill="#151515" stroke="#24FF00"/>
<path d="M1510.05 25.2187C1509.02 25.2187 1508.1 25.0417 1507.3 24.6875C1506.49 24.3333 1505.86 23.8411 1505.38 23.2109C1504.91 22.5755 1504.66 21.8385 1504.62 21H1506.59C1506.63 21.5156 1506.8 21.9609 1507.12 22.3359C1507.43 22.7057 1507.84 22.9922 1508.34 23.1953C1508.85 23.3984 1509.41 23.5 1510.02 23.5C1510.71 23.5 1511.32 23.3802 1511.85 23.1406C1512.38 22.901 1512.8 22.5677 1513.1 22.1406C1513.4 21.7135 1513.55 21.2188 1513.55 20.6562C1513.55 20.0677 1513.41 19.5495 1513.12 19.1016C1512.83 18.6484 1512.4 18.2943 1511.84 18.0391C1511.27 17.7839 1510.59 17.6562 1509.77 17.6562H1508.49V15.9375H1509.77C1510.41 15.9375 1510.97 15.8229 1511.45 15.5937C1511.93 15.3646 1512.31 15.0417 1512.58 14.625C1512.85 14.2083 1512.99 13.7187 1512.99 13.1562C1512.99 12.6146 1512.87 12.1432 1512.63 11.7422C1512.39 11.3411 1512.05 11.0286 1511.62 10.8047C1511.18 10.5807 1510.67 10.4687 1510.09 10.4687C1509.53 10.4687 1509.01 10.5703 1508.52 10.7734C1508.04 10.9714 1507.64 11.2604 1507.34 11.6406C1507.03 12.0156 1506.86 12.4688 1506.84 13H1504.96C1504.99 12.1615 1505.24 11.4271 1505.72 10.7969C1506.19 10.1615 1506.81 9.66667 1507.58 9.3125C1508.35 8.95833 1509.2 8.78125 1510.12 8.78125C1511.11 8.78125 1511.96 8.98177 1512.66 9.38281C1513.37 9.77865 1513.92 10.3021 1514.3 10.9531C1514.68 11.6042 1514.87 12.3073 1514.87 13.0625C1514.87 13.9635 1514.63 14.7318 1514.16 15.3672C1513.69 16.0026 1513.05 16.4427 1512.24 16.6875V16.8125C1513.25 16.9792 1514.04 17.4089 1514.61 18.1016C1515.18 18.7891 1515.46 19.6406 1515.46 20.6562C1515.46 21.526 1515.22 22.3073 1514.75 23C1514.28 23.6875 1513.64 24.2292 1512.83 24.625C1512.02 25.0208 1511.09 25.2187 1510.05 25.2187ZM1524.06 25.2187C1523.03 25.2187 1522.11 25.0417 1521.3 24.6875C1520.5 24.3333 1519.86 23.8411 1519.39 23.2109C1518.92 22.5755 1518.67 21.8385 1518.63 21H1520.59C1520.64 21.5156 1520.81 21.9609 1521.12 22.3359C1521.44 22.7057 1521.85 22.9922 1522.35 23.1953C1522.86 23.3984 1523.42 23.5 1524.03 23.5C1524.72 23.5 1525.33 23.3802 1525.86 23.1406C1526.39 22.901 1526.81 22.5677 1527.11 22.1406C1527.41 21.7135 1527.56 21.2188 1527.56 20.6562C1527.56 20.0677 1527.42 19.5495 1527.13 19.1016C1526.83 18.6484 1526.41 18.2943 1525.84 18.0391C1525.28 17.7839 1524.59 17.6562 1523.78 17.6562H1522.5V15.9375H1523.78C1524.42 15.9375 1524.97 15.8229 1525.45 15.5937C1525.94 15.3646 1526.32 15.0417 1526.59 14.625C1526.86 14.2083 1527 13.7187 1527 13.1562C1527 12.6146 1526.88 12.1432 1526.64 11.7422C1526.4 11.3411 1526.06 11.0286 1525.63 10.8047C1525.19 10.5807 1524.68 10.4687 1524.09 10.4687C1523.54 10.4687 1523.02 10.5703 1522.53 10.7734C1522.05 10.9714 1521.65 11.2604 1521.34 11.6406C1521.04 12.0156 1520.87 12.4688 1520.84 13H1518.97C1519 12.1615 1519.25 11.4271 1519.73 10.7969C1520.2 10.1615 1520.82 9.66667 1521.59 9.3125C1522.36 8.95833 1523.2 8.78125 1524.13 8.78125C1525.11 8.78125 1525.96 8.98177 1526.67 9.38281C1527.38 9.77865 1527.92 10.3021 1528.3 10.9531C1528.68 11.6042 1528.88 12.3073 1528.88 13.0625C1528.88 13.9635 1528.64 14.7318 1528.16 15.3672C1527.7 16.0026 1527.06 16.4427 1526.25 16.6875V16.8125C1527.26 16.9792 1528.05 17.4089 1528.62 18.1016C1529.18 18.7891 1529.47 19.6406 1529.47 20.6562C1529.47 21.526 1529.23 22.3073 1528.76 23C1528.29 23.6875 1527.65 24.2292 1526.84 24.625C1526.02 25.0208 1525.1 25.2187 1524.06 25.2187Z" fill="#24FF00"/>
<rect x="1500.5" y="150.5" width="149" height="149" fill="#910F17" stroke="#24FF00"/>
<path d="M1510.4 233.219C1509.37 233.219 1508.45 233.042 1507.64 232.687C1506.84 232.333 1506.2 231.841 1505.73 231.211C1505.26 230.576 1505 229.839 1504.96 229H1506.93C1506.97 229.516 1507.15 229.961 1507.46 230.336C1507.77 230.706 1508.18 230.992 1508.69 231.195C1509.19 231.398 1509.75 231.5 1510.37 231.5C1511.05 231.5 1511.66 231.38 1512.2 231.141C1512.73 230.901 1513.14 230.568 1513.45 230.141C1513.75 229.714 1513.9 229.219 1513.9 228.656C1513.9 228.068 1513.75 227.549 1513.46 227.102C1513.17 226.648 1512.74 226.294 1512.18 226.039C1511.62 225.784 1510.93 225.656 1510.12 225.656H1508.84V223.937H1510.12C1510.75 223.937 1511.31 223.823 1511.79 223.594C1512.27 223.365 1512.65 223.042 1512.92 222.625C1513.2 222.208 1513.34 221.719 1513.34 221.156C1513.34 220.615 1513.22 220.143 1512.98 219.742C1512.74 219.341 1512.4 219.029 1511.96 218.805C1511.53 218.581 1511.02 218.469 1510.43 218.469C1509.88 218.469 1509.36 218.57 1508.87 218.773C1508.38 218.971 1507.99 219.26 1507.68 219.641C1507.37 220.016 1507.21 220.469 1507.18 221H1505.3C1505.34 220.161 1505.59 219.427 1506.06 218.797C1506.54 218.161 1507.16 217.667 1507.92 217.312C1508.69 216.958 1509.54 216.781 1510.46 216.781C1511.45 216.781 1512.3 216.982 1513.01 217.383C1513.72 217.779 1514.26 218.302 1514.64 218.953C1515.02 219.604 1515.21 220.307 1515.21 221.063C1515.21 221.964 1514.97 222.732 1514.5 223.367C1514.03 224.003 1513.39 224.443 1512.59 224.688V224.812C1513.6 224.979 1514.39 225.409 1514.95 226.102C1515.52 226.789 1515.8 227.641 1515.8 228.656C1515.8 229.526 1515.57 230.307 1515.09 231C1514.63 231.687 1513.98 232.229 1513.17 232.625C1512.36 233.021 1511.43 233.219 1510.4 233.219ZM1519 233V231.594L1524.28 225.812C1524.9 225.135 1525.41 224.547 1525.81 224.047C1526.21 223.542 1526.51 223.068 1526.7 222.625C1526.9 222.177 1527 221.708 1527 221.219C1527 220.656 1526.86 220.169 1526.59 219.758C1526.33 219.346 1525.96 219.029 1525.5 218.805C1525.04 218.581 1524.52 218.469 1523.94 218.469C1523.32 218.469 1522.79 218.596 1522.33 218.852C1521.88 219.102 1521.52 219.453 1521.27 219.906C1521.03 220.359 1520.91 220.891 1520.91 221.5H1519.06C1519.06 220.562 1519.28 219.74 1519.71 219.031C1520.14 218.323 1520.73 217.771 1521.48 217.375C1522.23 216.979 1523.07 216.781 1524 216.781C1524.94 216.781 1525.77 216.979 1526.49 217.375C1527.22 217.771 1527.78 218.305 1528.2 218.977C1528.61 219.648 1528.81 220.396 1528.81 221.219C1528.81 221.807 1528.71 222.383 1528.49 222.945C1528.28 223.503 1527.92 224.125 1527.4 224.812C1526.88 225.495 1526.17 226.328 1525.25 227.312L1521.66 231.156V231.281H1529.09V233H1519Z" fill="#24FF00"/>
<rect x="1500.5" y="300.5" width="149" height="149" fill="#151515" stroke="#24FF00"/>
<path d="M1511.95 441.219C1510.91 441.219 1509.99 441.042 1509.19 440.687C1508.39 440.333 1507.75 439.841 1507.27 439.211C1506.8 438.576 1506.55 437.839 1506.51 437H1508.48C1508.52 437.516 1508.7 437.961 1509.01 438.336C1509.32 438.706 1509.73 438.992 1510.23 439.195C1510.74 439.398 1511.3 439.5 1511.91 439.5C1512.6 439.5 1513.21 439.38 1513.74 439.141C1514.27 438.901 1514.69 438.568 1514.99 438.141C1515.29 437.714 1515.45 437.219 1515.45 436.656C1515.45 436.068 1515.3 435.549 1515.01 435.102C1514.72 434.648 1514.29 434.294 1513.73 434.039C1513.16 433.784 1512.48 433.656 1511.66 433.656H1510.38V431.937H1511.66C1512.3 431.937 1512.86 431.823 1513.34 431.594C1513.82 431.365 1514.2 431.042 1514.47 430.625C1514.74 430.208 1514.88 429.719 1514.88 429.156C1514.88 428.615 1514.76 428.143 1514.52 427.742C1514.28 427.341 1513.95 427.029 1513.51 426.805C1513.08 426.581 1512.57 426.469 1511.98 426.469C1511.42 426.469 1510.9 426.57 1510.41 426.773C1509.93 426.971 1509.53 427.26 1509.23 427.641C1508.92 428.016 1508.75 428.469 1508.73 429H1506.85C1506.88 428.161 1507.14 427.427 1507.61 426.797C1508.08 426.161 1508.7 425.667 1509.47 425.312C1510.24 424.958 1511.09 424.781 1512.01 424.781C1513 424.781 1513.85 424.982 1514.55 425.383C1515.26 425.779 1515.81 426.302 1516.19 426.953C1516.57 427.604 1516.76 428.307 1516.76 429.063C1516.76 429.964 1516.52 430.732 1516.05 431.367C1515.58 432.003 1514.94 432.443 1514.13 432.688V432.812C1515.14 432.979 1515.93 433.409 1516.5 434.102C1517.07 434.789 1517.35 435.641 1517.35 436.656C1517.35 437.526 1517.11 438.307 1516.64 439C1516.17 439.687 1515.53 440.229 1514.72 440.625C1513.91 441.021 1512.98 441.219 1511.95 441.219ZM1526.17 425V441H1524.23V427.031H1524.14L1520.23 429.625V427.656L1524.23 425H1526.17Z" fill="#24FF00"/>
</g>
<defs>
<clipPath id="clip0_1_353">
<rect width="1800" height="450" fill="white"/>
</clipPath>
</defs>
</svg>
